<svg xmlns="http://www.w3.org/2000/svg" width="16.745" height="16.78" viewBox="0 0 16.745 16.78"><defs><style>.a{fill:#fff;}</style></defs><g transform="translate(0 0)"><path class="a" d="M16.845,12.315,14.5,9.973a1.558,1.558,0,0,0-2.593.585,1.594,1.594,0,0,1-1.84,1A7.221,7.221,0,0,1,5.722,7.213a1.516,1.516,0,0,1,1-1.84,1.557,1.557,0,0,0,.585-2.593L4.969.439a1.67,1.67,0,0,0-2.258,0L1.122,2.028C-.467,3.7,1.289,8.133,5.22,12.064s8.363,5.771,10.036,4.1l1.589-1.589A1.67,1.67,0,0,0,16.845,12.315Z" transform="translate(-0.539 0)"/></g></svg>