<svg xmlns="http://www.w3.org/2000/svg" width="19.834" height="13.946" viewBox="0 0 19.834 13.946"><defs><style>.a{fill:#fff;}</style></defs><g transform="translate(13.644 0.996)"><path class="a" d="M358.226,101.721l-6.015,5.976,6.015,5.976a1.723,1.723,0,0,0,.175-.747V102.468A1.723,1.723,0,0,0,358.226,101.721Z" transform="translate(-352.211 -101.721)"/></g><g transform="translate(0.996 0)"><path class="a" d="M42.815,76H26.468a1.723,1.723,0,0,0-.747.175l7.688,7.649a1.745,1.745,0,0,0,2.465,0l7.688-7.649A1.723,1.723,0,0,0,42.815,76Z" transform="translate(-25.721 -76)"/></g><g transform="translate(0 0.996)"><path class="a" d="M.175,101.721a1.723,1.723,0,0,0-.175.747v10.459a1.723,1.723,0,0,0,.175.747L6.19,107.7Z" transform="translate(0 -101.721)"/></g><g transform="translate(0.996 7.795)"><path class="a" d="M37.547,277.211l-.851.851a2.908,2.908,0,0,1-4.108,0l-.851-.851-6.015,5.976a1.723,1.723,0,0,0,.747.175H42.815a1.723,1.723,0,0,0,.747-.175Z" transform="translate(-25.721 -277.211)"/></g></svg>